<?xml version="1.0" encoding="utf-8"?>
<!-- Svg Vector Icons : http://www.onlinewebfonts.com/icon -->
<!DOCTYPE svg PUBLIC "-//W3C//DTD SVG 1.1//EN" "http://www.w3.org/Graphics/SVG/1.1/DTD/svg11.dtd">
<svg version="1.1" xmlns="http://www.w3.org/2000/svg" xmlns:xlink="http://www.w3.org/1999/xlink" x="0px" y="0px" viewBox="0 0 1000 1000" enable-background="new 0 0 1000 1000" xml:space="preserve">
<metadata> Svg Vector Icons : http://www.onlinewebfonts.com/icon </metadata>
<g><g transform="translate(0.000000,512.000000) scale(0.100000,-0.100000)"><path d="M4655.3,5002.7c-492.1-51.7-1039.7-241.3-1449.5-499.8c-67-42.1-120.6-80.4-120.6-86.2c0-15.3,157-235.5,168.5-235.5c5.7,0,63.2,32.6,126.4,74.7c302.5,189.6,664.4,333.2,1032.1,407.9c308.3,63.2,863.6,63.2,1177.6,0c298.7-59.4,530.4-139.8,798.5-273.8c844.4-421.3,1441.8-1210.1,1618-2136.9c21.1-114.9,46-310.2,55.5-436.6l15.3-229.8l453.8-976.5C8829.6-37,8982.8-385.5,8982.8-427.7v-63.2h-392.5c-415.5,0-469.1-9.6-505.5-90c-13.4-30.6-21.1-287.2-21.1-796.6c0-846.3-7.7-905.7-130.2-1085.7c-38.3-57.4-113-136-166.6-176.2c-183.8-139.8-176.2-137.9-1057-145.5l-790.8-5.7v-153.2V-3095h153.2h153.2v-842.5V-4780h153.2h153.2v840.6v840.6l484.4,7.7c436.6,7.6,494,13.4,595.5,49.8c331.3,122.6,584,373.4,702.7,695.1c42.1,118.7,44.1,145.5,51.7,836.8l5.7,712.3h390.6c245.1,0,407.9,7.6,436.6,21.1c70.8,32.5,90,95.7,90,291v176.2l-457.6,988c-453.8,980.4-455.7,989.9-469.1,1148.9c-40.2,509.3-147.4,901.9-356.1,1319.3c-264.2,528.5-689.3,1003.3-1191,1328.9C6177.6,4889.8,5394.4,5081.2,4655.3,5002.7z"/><path d="M2089.5,3800.2v-153.2l1317.4-5.8c1311.6-7.7,1315.5-7.7,1478.2-51.7c735.3-203,1258-731.5,1441.9-1457.2c59.4-229.8,57.4-744.9,0-957.4c-107.2-386.8-273.8-683.6-524.6-936.3C5549.6-12.1,5260.4-174.9,4866-286c-141.7-40.2-166.6-42.1-2148.4-47.9l-2006.7-5.8v-151.3V-644h1882.2c1185.3,0,1941.6,7.6,2043.1,19.2c522.7,65.1,986.1,292.9,1361.4,668.2c381.1,381.1,603.2,834.9,668.3,1361.4c26.8,220.2,24.9,333.2-11.5,568.7c-72.8,497.9-289.1,922.9-656.8,1290.6c-331.3,331.3-683.6,526.6-1164.2,643.4c-113,26.8-302.5,32.5-1436.1,38.3l-1307.8,7.7V3800.2z"/><path d="M3927.7,2419.7v-306.4h-306.4H3315v-459.6v-459.6h306.4h306.4V887.8V581.5h459.6h459.6v306.4v306.4h306.4h306.4v459.6v459.6h-306.4h-306.4v306.4V2726h-459.6h-459.6V2419.7z M4540.4,2113.3v-306.4h306.4h306.4v-153.2v-153.2h-306.4h-306.4v-306.4V887.8h-153.2h-153.2v306.4v306.4h-306.4h-306.4v153.2v153.2h306.4h306.4v306.4v306.4h153.2h153.2V2113.3z"/><path d="M1476.8,1960.1v-153.2h153.2h153.2v153.2v153.2h-153.2h-153.2V1960.1z"/><path d="M2089.5,1960.1v-153.2h153.2h153.2v153.2v153.2h-153.2h-153.2V1960.1z"/><path d="M2702.2,1960.1v-153.2h153.2h153.2v153.2v153.2h-153.2h-153.2V1960.1z"/><path d="M1476.8,1347.4v-153.2h153.2h153.2v153.2v153.2h-153.2h-153.2V1347.4z"/><path d="M2089.5,1347.4v-153.2h153.2h153.2v153.2v153.2h-153.2h-153.2V1347.4z"/><path d="M2702.2,1347.4v-153.2h153.2h153.2v153.2v153.2h-153.2h-153.2V1347.4z"/><path d="M2554.8-1103.6c-67-26.8-124.5-55.5-130.2-59.4c-3.8-5.7,30.6-109.1,78.5-229.8c120.6-306.4,229.8-656.8,289.1-926.7l51.7-229.8l5.7-1114.4l7.7-1116.3h153.2h155.1l-9.6,1106.7c-9.6,1185.3-7.7,1175.7-118.7,1614.2c-72.8,291.1-308.3,957.4-350.4,995.7C2679.3-1057.6,2619.9-1074.9,2554.8-1103.6z"/></g></g>
</svg>