<?xml version="1.0" encoding="utf-8"?>
<!-- Svg Vector Icons : http://www.onlinewebfonts.com/icon -->
<!DOCTYPE svg PUBLIC "-//W3C//DTD SVG 1.1//EN" "http://www.w3.org/Graphics/SVG/1.1/DTD/svg11.dtd">
<svg version="1.1" xmlns="http://www.w3.org/2000/svg" xmlns:xlink="http://www.w3.org/1999/xlink" x="0px" y="0px" viewBox="0 0 1000 1000" enable-background="new 0 0 1000 1000" xml:space="preserve">
<metadata> Svg Vector Icons : http://www.onlinewebfonts.com/icon </metadata>
<g><path d="M500,990C229.4,990,10,770.6,10,500C10,229.4,229.4,10,500,10c270.6,0,490,219.4,490,490C990,770.6,770.6,990,500,990z M500,40.6C246.3,40.6,40.6,246.3,40.6,500c0,253.7,205.7,459.4,459.4,459.4c253.7,0,459.4-205.7,459.4-459.4C959.4,246.3,753.7,40.6,500,40.6z M728.2,564.3l-108-123.7L481.3,610.7l-92.6-108.2L327,564.3H166.1v-30.9h145.5l77.1-77.3l92.6,108.2l138.9-170.1l123.4,139.1h117.8v30.9H728.2z M765.6,489.6c17.4-50.5,5.8-108.6-34.9-148.8c-55-54.3-143.5-56.2-201.4-4.3l-26.2,23.5l-26.2-23.5c-57.9-52-146.4-50.1-201.4,4.3c-41.9,41.3-52.9,101.6-33.4,153h-41.2c-18.1-62-2.5-131.5,47-180.3c70.3-69.4,182.5-70.8,255.3-5.6c72.8-65.3,185.1-63.8,255.3,5.6c53.1,52.5,67.1,128.8,42.3,194L765.6,489.6z M489.3,756.4c7.6,7.5,20,7.5,27.6,0l178-175.7l29.6,25.3c-60.3,59.5-180,177.7-180,177.7c-22.9,22.6-59.9,22.6-82.8,0c0,0-121.1-119.6-181.8-179.5H335L489.3,756.4z"/></g>
</svg>