<?xml version="1.0" encoding="UTF-8"?>
<svg width="752pt" height="752pt" version="1.1" viewBox="0 0 752 752" xmlns="http://www.w3.org/2000/svg">
 <g>
  <path d="m589.11 297.86c0-34.098-27.469-61.566-61.566-61.566s-61.566 27.469-61.566 61.566c0 22.73 12.312 42.621 30.781 53.043v32.203c0 3.3164 2.8398 6.1562 6.1562 6.1562h18.941c-0.47266 80.98-16.102 185.17-135.45 185.17-93.77 0-128.34-62.984-131.66-96.609 5.6836-0.47266 11.367-0.94531 16.102-1.8945 4.2617 22.73 27.941 50.199 74.824 50.199 25.574 0 44.988-16.574 57.777-49.727 10.426-29.363 16.582-74.828 17.059-133.55h13.262c3.3164 0 6.1562-2.8398 6.1562-6.1562v-32.676c0-1.8945-0.94531-3.7891-2.8398-5.2109 13.734-11.84 22.73-34.098 22.73-60.617 0-24.625-17.051-49.727-31.258-66.773-3.7891-4.2617-8.9961-6.6289-14.68-6.6289-5.6875-0.003906-10.422 2.8359-14.211 7.0977-14.207 17.051-31.258 42.148-31.258 66.773 0 26.047 8.9961 48.777 22.73 60.617-1.4219 0.94531-2.8398 2.8398-2.8398 5.2109v32.676c0 3.3164 2.8398 6.1562 6.1562 6.1562h13.262c-0.94531 113.66-21.785 170.96-62.984 170.96-39.781 0-59.672-21.785-62.512-40.254 10.418-1.8945 16.102-4.2617 16.574-4.2617 2.3672-0.94531 4.2617-3.3164 4.2617-5.6836v-3.7891c28.887-0.94531 38.832-10.418 40.254-11.84 0.94531-0.94531 1.8945-2.8398 1.8945-4.2617v-176.64c0-0.47266 0-1.4219-0.47266-1.8945 0-0.47266 0.47266-1.4219 0.47266-1.8945 0-7.5781-8.9961-12.312-29.836-16.102-16.574-2.8398-37.887-4.2617-61.094-4.2617-23.207 0-44.516 1.4219-61.094 4.2617-21.309 3.7891-30.305 8.5234-30.305 16.102v1.8945 1.4219 192.27c0 2.3672 1.4219 4.2617 3.3164 5.2109 0.94531 0.47266 25.574 14.207 66.773 14.207h8.5234c1.8945 17.051 10.418 42.148 30.781 64.406 18.469 19.891 53.516 44.043 113.66 44.043 143.97 0 147.76-143.97 147.76-197.48h18.941c3.3164 0 6.1562-2.8398 6.1562-6.1562v-32.203c18-11.367 30.312-30.781 30.312-53.516zm-208.38-59.195c0-21.785 17.523-46.41 27.941-58.723 1.4219-1.4219 3.3164-2.3672 5.2109-2.3672s3.7891 0.94531 5.2109 2.3672c10.418 12.312 27.941 36.938 27.941 58.723 0 31.258-15.156 57.305-33.152 57.305-18-0.003906-33.152-26.523-33.152-57.305zm20.363 71.508h26.047v20.363h-26.047zm-68.668 130.71c-3.3164 1.8945-12.312 6.1562-29.363 6.6289v-165.75c6.6289-0.47266 17.996-2.3672 29.363-7.5781zm-78.617-185.17c37.887 0 62.512 3.7891 73.406 7.1055-15.156 6.6289-29.363 6.6289-30.309 6.6289-0.94531 0-1.8945 0-2.3672 0.47266-4.2617-3.3164-9.4727-5.2109-15.156-4.7344-10.418 0.47266-20.363 0.47266-29.363 0.47266-30.781 0-50.199-1.8945-62.512-4.7344 12.789-2.3672 35.047-5.2109 66.301-5.2109zm-78.613 199.38v-180.91c1.4219-0.47266 2.8398-0.94531 3.3164-2.3672 21.312 5.2109 56.355 7.1055 100.87 5.6836h0.47266c5.6836 0 10.418 4.7344 10.418 10.418v170.96c-8.0508 2.3672-28.887 7.1055-57.777 7.1055-29.359 0.47266-49.723-7.5781-57.301-10.895zm370.81-98.504v20.363h-37.887v-20.363h0.47656c5.6836 1.8945 12.312 2.8398 18.469 2.8398s12.785-0.94531 18.941-2.8398zm-2.3672-12.312h-32.676c-19.418-6.6289-33.152-25.102-33.152-46.41 0-27.469 22.258-49.73 49.727-49.73s49.254 22.258 49.254 49.254c0 21.785-13.734 40.254-33.152 46.887z"/>
  <path d="m527.55 260.45c-20.363 0-36.938 16.574-36.938 36.938s16.574 36.938 36.938 36.938 36.938-16.574 36.938-36.938c0.003906-20.363-16.574-36.938-36.938-36.938zm0 62.039c-13.734 0-24.625-10.891-24.625-24.625 0-11.367 8.0508-21.312 18.469-23.68v23.68c0 3.3164 2.8398 6.1562 6.1562 6.1562s6.1562-2.8398 6.1562-6.1562v-23.68c10.418 2.8398 18.469 12.312 18.469 23.68 0 13.258-11.363 24.625-24.625 24.625z"/>
 </g>
</svg>
