<?xml version="1.0" encoding="utf-8"?>
<!-- Svg Vector Icons : http://www.onlinewebfonts.com/icon -->
<!DOCTYPE svg PUBLIC "-//W3C//DTD SVG 1.1//EN" "http://www.w3.org/Graphics/SVG/1.1/DTD/svg11.dtd">
<svg version="1.1" xmlns="http://www.w3.org/2000/svg" xmlns:xlink="http://www.w3.org/1999/xlink" x="0px" y="0px" viewBox="0 0 1000 1000" enable-background="new 0 0 1000 1000" xml:space="preserve">
<metadata> Svg Vector Icons : http://www.onlinewebfonts.com/icon </metadata>
<g><g transform="translate(0.000000,511.000000) scale(0.100000,-0.100000)"><path d="M2275,4529.4c-819.3-74.7-1460.5-536-1828.1-1311.2C194.2,2680.2,41.1,1771,121.5,1275.2C203.8,775.6,619.2,63.5,1327.4-788.3C2095.1-1711,3458-3039.4,4748.2-4124.8c128.3-107.2,243.1-195.3,254.6-195.3c42.1,0,968.6,800.1,1569.7,1357.2c394.3,363.7,1267.2,1234.7,1579.2,1575.4C9202.6-240.8,9786.4,662.6,9885.9,1296.3c13.4,82.3,17.2,241.2,11.5,405.8c-53.6,1253.8-537.9,2187.9-1343.8,2595.7c-388.6,197.2-962.9,289-1368.7,218.2c-587.7-103.4-1435.7-551.3-2044.4-1079.6l-137.8-120.6L4863,3436.4c-459.4,400.1-1160,813.5-1659.6,980.1C2874.1,4525.5,2602.3,4560,2275,4529.4z M2776.5,3899.6c402-82.3,955.2-363.7,1460.5-740.8c99.5-76.6,313.9-266.1,474.7-423l291-285.2l302.4,294.8c509.2,501.5,1104.5,886.3,1669.2,1083.5c241.2,84.2,396.3,109.1,610.6,93.8c815.4-55.5,1340-530.2,1581.1-1428c86.1-327.3,149.3-920.7,116.8-1096.8l-13.4-70.8h-846.1h-844.2l-451.8,447.9c-294.8,294.8-469,453.7-503.4,463.2c-78.5,19.1-202.9-3.8-260.4-45.9c-34.5-24.9-210.6-356-558.9-1047.1C5310.9,166.9,5293.7,136.2,5265,180.3c-15.3,24.9-120.6,218.2-233.5,428.8c-333.1,616.4-342.6,631.7-438.3,677.6c-82.3,40.2-99.5,42.1-964.8,36.4c-855.7-5.7-882.4-7.7-934.1-45.9c-84.2-61.3-126.3-130.2-135.9-222.1c-13.4-111,28.7-206.7,120.6-275.6l70.8-55.5l738.9-5.7l738.9-5.8l373.3-689.1c204.8-380.9,396.2-714,425-740.8c130.2-124.4,363.7-128.3,501.5-7.7c19.1,17.2,271.8,509.2,558.9,1091.1c287.1,580,528.3,1056.7,536,1056.7c7.7,0,139.8-122.5,292.9-273.7c153.1-149.3,321.6-306.3,373.3-348.4l93.8-76.6l811.6-5.7c444.1-1.9,809.7-13.4,809.7-21.1c0-30.6-340.7-524.5-518.7-754.2c-692.9-890.1-1952.5-2165-3204.4-3246.5c-147.4-126.3-271.8-231.6-277.6-231.6c-15.3,0-455.6,380.9-880.5,763.8c-478.6,430.7-1694.1,1644.3-2040.6,2036.7C1379.1,65.4,937,710.5,778.1,1164.2c-59.3,170.4-74.6,388.6-45.9,693c78.5,865.2,365.6,1472,849.9,1803.2C1901.7,3878.5,2397.5,3978.1,2776.5,3899.6z"/></g></g>
</svg>